<svg width="22" height="23" viewBox="0 0 22 23" fill="none" xmlns="http://www.w3.org/2000/svg">
<path fill-rule="evenodd" clip-rule="evenodd" d="M12.9199 9.00002H10.9199V5.88313H7.91992V3.80521H10.9199V0.688324H12.9199V3.80521H15.9199V5.88313H12.9199V9.00002ZM4.92993 20.4286C4.92993 19.2857 5.81995 18.3507 6.91992 18.3507C8.0199 18.3507 8.91992 19.2857 8.91992 20.4286C8.91992 21.5714 8.0199 22.5065 6.91992 22.5065C5.81995 22.5065 4.92993 21.5714 4.92993 20.4286ZM16.9199 18.3507C15.82 18.3507 14.93 19.2857 14.93 20.4286C14.93 21.5714 15.82 22.5065 16.9199 22.5065C18.0199 22.5065 18.9199 21.5714 18.9199 20.4286C18.9199 19.2857 18.0199 18.3507 16.9199 18.3507ZM15.47 13.1559H8.0199L6.91992 15.2338H18.9199V17.3117H6.91992C5.3999 17.3117 4.43994 15.6182 5.16992 14.226L6.5199 11.6909L2.91992 3.80521H0.919922V1.72729H4.18994L8.44995 11.0779H15.47L19.34 3.80521L21.08 4.8026L17.22 12.0857C16.8799 12.7299 16.22 13.1559 15.47 13.1559Z" fill="black" fill-opacity="0.54"/>
</svg>
