<svg width="12" height="12" viewBox="0 0 12 12" fill="none" xmlns="http://www.w3.org/2000/svg">
<path fill-rule="evenodd" clip-rule="evenodd" d="M8.31679 7.2971H8.81054L11.9293 10.4221L10.998 11.3534L7.87304 8.2346V7.74085L7.70429 7.56585C6.99179 8.17835 6.06679 8.5471 5.06054 8.5471C2.81682 8.5471 0.998047 6.72835 0.998047 4.4846C0.998047 2.24086 2.81682 0.422104 5.06054 0.422104C7.30429 0.422104 9.12304 2.24086 9.12304 4.4846C9.12304 5.49085 8.75429 6.41585 8.14185 7.12835L8.31679 7.2971ZM2.24805 4.4846C2.24805 6.04085 3.5043 7.2971 5.06054 7.2971C6.61679 7.2971 7.87304 6.04085 7.87304 4.4846C7.87304 2.92836 6.61679 1.6721 5.06054 1.6721C3.5043 1.6721 2.24805 2.92836 2.24805 4.4846Z" fill="black" fill-opacity="0.54"/>
</svg>
